<?xml version="1.0" encoding="UTF-8"?>
<svg width="700px" height="700px" viewBox="0 0 700 700" version="1.1" xmlns="http://www.w3.org/2000/svg">
    <metadata>
        Image made by Lorc under CC BY 3.0 (available on https://game-icons.net)
    </metadata>
    <g stroke="none" stroke-width="1" fill="none" fill-rule="evenodd">
        <path fill="#FFFFFF" stroke="none" d="M.5 700.5h700V.5H.5z"/>

        <g transform="translate(0.000000, 1.000000)">
            <g transform="translate(-1.000000, -1.000000)">
                <g>
                    <rect x="0" y="0" width="581.169757" height="401.426534"/>
                </g>
                <g transform="translate(0.998573, 0.998573)" fill="#000000">
                    <g transform="translate(349.500713, 349.500713) scale(-1, 1) rotate(-180.000000) translate(-349.500713, -349.500713) ">
                        <path d="M0,349.500713 L0,0 L349.500713,0 L699.001427,0 L699.001427,349.500713 L699.001427,699.001427 L349.500713,699.001427 L0,699.001427 L0,349.500713 Z M321.041369,668.345221 C324.536377,642.382311 330.727532,623.908702 341.412268,608.330956 C346.205421,601.340942 357.389444,590.456491 363.580599,586.861626 C393.038516,569.686163 429.386591,582.767475 453.851641,619.614836 C458.944365,627.203994 466.932953,642.482168 469.129815,648.972896 L470.228245,651.968616 L478.017118,648.773181 C489.800285,644.079886 514.46505,631.298146 526.048502,624.108417 C542.025678,614.122682 561.49786,599.243937 560.399429,597.845934 C533.437946,564.693295 522.653352,532.339515 529.942939,506.376605 C535.235378,487.104137 550.713267,472.524964 571.68331,466.833096 C580.970043,464.336662 600.741797,463.837375 612.624822,465.734665 C620.713267,467.03281 641.28388,473.223966 649.172611,476.718973 C650.470756,477.318117 651.46933,476.019971 653.865906,470.128388 C664.350927,444.864479 673.63766,408.216833 675.634807,384.550642 L676.333809,376.861626 L666.947218,375.663338 C635.492154,371.768902 608.031384,358.188302 594.25107,339.714693 C567.489301,304.165478 587.8602,258.830243 642.282454,232.667618 C647.974322,229.971469 653.166904,227.67475 653.865906,227.67475 C655.563481,227.67475 655.064194,226.077033 648.873039,212.196862 C637.689016,187.631954 622.610556,163.266762 603.437946,139.101284 C602.53923,137.902996 600.841655,138.801712 593.152639,144.593438 C566.39087,164.964337 535.235378,173.552068 510.370899,167.660485 C500.984308,165.363766 493.095578,160.770328 485.805991,153.380884 C477.917261,145.392297 473.523538,137.403709 470.128388,125.121255 C467.232525,114.136947 467.232525,94.3651926 470.228245,80.1854494 C472.425107,69.700428 477.118402,55.2211127 480.413695,48.7303852 L482.310984,45.0356633 L469.529244,40.1426534 C447.46077,31.5549215 423.195435,25.2639087 397.332382,21.4693295 C391.440799,20.6704708 385.049929,19.9714693 383.052782,19.9714693 C379.657632,19.9714693 379.457917,20.171184 379.457917,23.2667618 C379.457917,24.9643367 378.758916,30.3566334 377.960057,35.2496434 C369.971469,80.7845934 345.606277,110.142653 313.252496,113.437946 C301.0699,114.636234 285.592011,109.843081 272.910128,100.955777 C256.833096,89.6718973 240.156919,67.0042796 232.168331,45.7346648 C231.169757,43.0385164 230.271041,40.9415121 230.171184,40.9415121 C230.071327,40.9415121 227.175464,42.1398003 223.680456,43.5378031 C203.309558,51.8259629 175.249643,67.2039943 158.174037,79.5863053 C145.592011,88.6733238 139.900143,93.2667618 139.800285,94.4650499 C139.800285,95.064194 140.998573,96.5620542 142.396576,97.9600571 C145.791726,101.055635 157.974322,119.329529 161.868759,127.018545 C163.566334,130.313837 166.462197,137.803138 168.459344,143.594864 C171.654779,152.981455 172.154066,155.777461 172.553495,166.761769 C173.252496,186.633381 168.858773,199.514979 157.375178,211.098431 C136.504993,232.168331 95.5634807,235.463623 56.4194009,219.286733 C53.1241084,217.988588 50.128388,217.189729 49.7289586,217.489301 C48.5306705,218.687589 40.042796,241.455064 36.8473609,251.940086 C31.3552068,270.413695 26.7617689,293.18117 24.5649073,312.054208 L23.9657632,317.146933 L35.8487874,318.844508 C78.1883024,324.935806 109.243937,346.405136 116.433666,374.46505 C118.730385,383.452211 117.931526,398.630528 114.835949,406.918688 C106.647646,428.28816 88.4736091,446.36234 61.5121255,459.843081 C54.4222539,463.437946 48.0313837,466.333809 47.3323823,466.333809 C45.4350927,466.333809 45.5349501,467.532097 48.5306705,474.621969 C56.1198288,492.796006 70.3994294,518.459344 82.1825963,535.135521 C87.9743224,543.223966 97.9600571,556.205421 98.4593438,556.205421 C98.5592011,556.205421 102.553495,553.309558 107.146933,549.814551 C128.017118,534.136947 148.28816,525.74893 168.858773,524.550642 C180.841655,523.851641 190.028531,525.349501 199.215407,529.643367 C208.901569,534.136947 215.592011,539.828816 221.084165,548.116976 C235.863053,570.385164 236.462197,602.53923 222.582026,637.289586 C220.385164,642.78174 218.787447,647.475036 218.887304,647.67475 C220.784593,649.472183 245.349501,658.259629 260.42796,662.453638 C277.303852,667.146933 307.161198,672.738944 316.747504,672.938659 C320.442225,673.038516 320.442225,673.038516 321.041369,668.345221 Z"
                              id="svg_2"/>
                        <path d="M332.524964,542.624822 C331.126961,542.425107 326.233951,541.726106 321.540656,541.126961 C266.219686,533.937233 213.994294,499.686163 182.938659,450.156919 C163.566334,419.400856 153.580599,384.25107 153.580599,346.504993 C153.580599,293.081312 173.552068,244.850214 211.098431,207.203994 C248.74465,169.657632 296.676177,149.885877 350.299572,149.78602 C403.723252,149.78602 451.155492,169.35806 488.901569,207.104137 C519.857347,238.059914 537.232525,271.911555 544.921541,316.048502 C547.21826,329.828816 547.21826,362.981455 544.821683,376.961484 C539.029957,410.713267 527.546362,437.67475 506.676177,465.934379 C499.386591,475.920114 480.313837,494.992867 469.728959,502.981455 C444.165478,522.35378 414.008559,535.335235 382.054208,540.827389 C373.466476,542.32525 338.116976,543.623395 332.524964,542.624822 Z M376.961484,515.663338 C414.607703,509.472183 445.563481,493.495007 472.32525,466.333809 C493.594864,444.764622 508.07418,419.300999 516.162625,389.443652 C523.052782,363.880171 523.152639,330.627675 516.162625,303.366619 C502.582026,249.743224 461.241084,204.208274 408.915835,185.435093 C388.74465,178.145506 372.56776,175.349501 350.499287,175.349501 C322.039943,175.349501 298.972896,180.64194 274.008559,193.024251 C197.617689,230.770328 160.770328,319.343795 187.731812,400.42796 C199.814551,436.875892 223.281027,467.631954 255.035663,488.801712 C291.184023,512.867332 334.921541,522.453638 376.961484,515.663338 Z"
                              id="svg_3"/>
                        <path d="M337.018545,496.690442 C312.952924,493.894437 292.582026,487.403709 274.907275,476.918688 C239.457917,455.948645 214.194009,422.99572 204.108417,384.25107 C198.216833,361.483595 198.216833,331.92582 204.208274,308.559201 C217.589158,256.134094 260.128388,213.594864 312.553495,200.21398 C331.92582,195.221113 355.891583,194.322397 375.763195,197.717546 C426.39087,206.305278 469.629101,240.656205 489.400856,288.088445 C498.587732,310.057061 502.582026,336.119829 500.485021,359.286733 C496.990014,395.934379 482.510699,427.089872 456.747504,452.75321 C431.883024,477.717546 401.226819,492.396576 366.276748,496.191155 C357.089872,497.189729 343.708987,497.389444 337.018545,496.690442 Z"
                              id="svg_4"/>
                    </g>
                    <text stroke="#000000" stroke-width="3"
                          transform="translate(106.103514, 209.417463) rotate(-55.000000) translate(-106.103514, -209.417463) "
                          font-family="Helvetica" font-size="80" font-weight="normal">
                        <tspan x="83.6356106" y="239.417463">8</tspan>
                    </text>
                    <text stroke="#000000" stroke-width="3"
                          transform="translate(287.133500, 89.935115) rotate(-13.000000) translate(-287.133500, -89.935115) "
                          font-family="Helvetica" font-size="80" font-weight="normal">
                        <tspan x="264.665597" y="119.935115">1</tspan>
                    </text>
                    <text stroke="#000000" stroke-width="3"
                          transform="translate(493.261847, 116.295384) rotate(30.000000) translate(-493.261847, -116.295384) "
                          font-family="Helvetica" font-size="80" font-weight="normal">
                        <tspan x="470.793944" y="146.295384">2</tspan>
                    </text>
                    <text stroke="#000000" stroke-width="3"
                          transform="translate(620.868024, 281.460176) rotate(77.000000) translate(-620.868024, -281.460176) "
                          font-family="Helvetica" font-size="80" font-weight="normal">
                        <tspan x="598.400121" y="311.460176">3</tspan>
                    </text>
                    <text stroke="#000000" stroke-width="3"
                          transform="translate(590.303671, 495.813194) rotate(129.000000) translate(-590.303671, -495.813194) "
                          font-family="Helvetica" font-size="80" font-weight="normal">
                        <tspan x="567.835768" y="525.813194">4</tspan>
                    </text>
                    <text stroke="#000000" stroke-width="3"
                          transform="translate(418.497813, 624.162613) rotate(163.000000) translate(-418.497813, -624.162613) "
                          font-family="Helvetica" font-size="80" font-weight="normal">
                        <tspan x="396.02991" y="654.162613">5</tspan>
                    </text>
                    <text stroke="#000000" stroke-width="3"
                          transform="translate(205.131310, 596.734371) rotate(-146.000000) translate(-205.131310, -596.734371) "
                          font-family="Helvetica" font-size="80" font-weight="normal">
                        <tspan x="182.663407" y="626.734371">6</tspan>
                    </text>
                    <text stroke="#000000" stroke-width="3"
                          transform="translate(76.639443, 415.715961) rotate(-104.000000) translate(-76.639443, -415.715961) "
                          font-family="Helvetica" font-size="80" font-weight="normal">
                        <tspan x="54.1715402" y="445.715961">7</tspan>
                    </text>
                </g>
            </g>
        </g>
    </g>
</svg>